<svg id="Capa_1" enable-background="new 0 0 509.58 509.58" height="512" viewBox="0 0 509.58 509.58" width="512" xmlns="http://www.w3.org/2000/svg"><g><path d="m301.16 374.167c0 25.61-20.76 46.37-46.37 46.37s-46.37-20.76-46.37-46.37 46.37-144.06 46.37-144.06 46.37 118.45 46.37 144.06z" fill="#ff6826"/><path d="m301.16 374.167c0 25.61-20.76 46.37-46.37 46.37v-190.43s46.37 118.45 46.37 144.06z" fill="#e50057"/><path d="m71.566 318.479-36.413-7.401-35.153 7.401c0 46.417 12.418 89.931 34.105 127.413l61.986-35.788c-15.595-26.954-24.525-58.246-24.525-91.625z" fill="#ff6826"/><path d="m96.091 226.854-26.843-31.013-35.143-4.775c-21.687 37.481-34.105 80.995-34.105 127.413h71.566c0-33.38 8.93-64.672 24.525-91.625z" fill="#ff8548"/><path d="m163.165 159.78-5.639-39.001-30.148-22.985c-38.664 22.371-70.901 54.609-93.272 93.272l61.986 35.788c16.086-27.804 39.269-50.987 67.073-67.074z" fill="#ffa84a"/><path d="m254.79 135.254 14.096-37.46-14.096-34.105c-46.417 0-89.931 12.418-127.413 34.105l35.788 61.986c26.953-15.595 58.245-24.526 91.625-24.526z" fill="#ffea01"/><path d="m346.415 159.78 31.365-24.528 4.423-37.458c-37.481-21.687-80.995-34.105-127.413-34.105v71.565c33.38 0 64.671 8.931 91.625 24.526z" fill="#ffc303"/><path d="m413.489 226.854 42.173-3.525 19.813-32.263c-22.371-38.664-54.609-70.902-93.272-93.272l-35.788 61.986c27.804 16.087 50.986 39.27 67.074 67.074z" fill="#80c200"/><path d="m438.014 318.479 37.461 22.73 34.105-22.73c0-46.417-12.418-89.931-34.105-127.413l-61.986 35.788c15.595 26.953 24.525 58.245 24.525 91.625z" fill="#01b71d"/><path d="m438.014 318.479c0 33.38-8.93 64.671-24.526 91.625l61.986 35.788c21.687-37.481 34.105-80.995 34.105-127.413z" fill="#019a5a"/></g></svg>